<?xml version="1.0" encoding="utf-8"?>
<svg version="1.1" xmlns="http://www.w3.org/2000/svg" xmlns:xlink="http://www.w3.org/1999/xlink" x="0px" y="0px"
	 width="256px" height="242px" viewBox="0 0 256 242" style="enable-background:new 0 0 256 242;" xml:space="preserve">
<style type="text/css">
	.st0{fill:#DE7034;}
	.st1{fill:#EBC4B6;}
	.st2{fill:#DEB7A9;}
	.st3{fill:#6FDEE8;}
	.st4{fill:#D16A35;}
	.st5{fill:#74DDE6;}
	.st6{fill:#9AD1CE;}
	.st7{fill:#353535;}
	.st8{fill:#76E8F2;}
	.st9{fill:#CD6730;}
	.st10{fill:#E7B29D;}
	.st11{fill:#D8B5A8;}
	.st12{fill:#7EE5EE;}
	.st13{fill:#DCDCDC;}
	.st14{fill:#DDDDDD;}
	.st15{fill:#DE7035;}
</style>
<g>
	<path class="st0" d="M199.6,48.4c0.2,0.2,0.3,0.4,0.5,0.5c7.9,5.4,15.1,11.5,22.8,17.2c1.4,1.1,2.9,2.1,4.6,2.8
		c-0.1,0.7-0.7,0.5-1.2,0.6c-1.8,0.1-3.6-0.2-5.4-0.3c-8.2-0.5-16.4-0.3-24.5,1.5c-13.8,3.1-25.9,9.6-36.8,18.4
		c-2.2,1.8-4.2,3.7-6.4,5.4c-1.7-0.3-3.2-1-4.9-1.1c-4.2-0.2-8,0.7-11.2,3.6c-0.3,0.3-0.6,0.6-1,0.6c-1.7-0.4-3.2-1.3-4.8-2
		c-8.2-3.6-16.8-5.8-25.8-6.9c-3.4-0.4-6.9-0.6-10.3-0.6c-3.4,0-6.8,0.1-10.2,0.5c-6.2,0.6-12.3,1.7-18.3,3.2
		c-3.2,0.8-6.3,1.7-9.4,2.5c-0.6,0.2-1.2,0.4-1.8,0.1c-0.1,0-0.2-0.1-0.3-0.2c0-0.2,0-0.3,0.2-0.4c4-3.6,6.9-8,9.9-12.3
		c4.4-6.2,8.9-12.3,13.7-18.2c0.3-0.4,0.7-0.8,1.1-1.2c0.7-1,1.6-1.8,2.4-2.8c2.4-2.7,5-5.3,7.6-7.8c4.9-4.9,10.3-9.2,16.2-12.8
		c0.5-0.3,0.9-0.6,1.3-1c1.5-0.5,2.8-1.5,4.3-2.1c0.6-0.1,1.1-0.4,1.6-0.6c5.7-2.6,11.5-4.8,17.7-5.9c0.1,0,0.2,0,0.2-0.1
		c2.6-0.5,2.6-0.5,1.2-2.7c-1.4-2.3-3.2-4.2-5.2-5.9c-0.6-0.5-1.1-1-1.8-1.6c0.8-0.3,1.3,0.1,1.8,0.3c4.1,1.6,7.1,4.4,9.5,8
		c0.2,0.3,0.4,0.6,0.5,0.9c0.2,0.3,0.5,0.3,0.8,0.2c0.3-0.1,0.1-0.4,0.1-0.7c-0.4-2.1-1.3-4-2.2-5.8c-0.3-0.6-0.6-1.2-0.9-1.9
		c0.7-0.1,1,0.3,1.4,0.6c2.2,1.8,3.7,4.1,4.7,6.7c0.3,0.7,0.6,0.9,1.3,0.9c6.4-0.1,12.6,0.7,18.8,2.2c0.4,0.1,0.9,0.5,1.4,0
		c1.3,0.4,2.5,0.8,3.8,1.1c10.7,3.4,20.6,8.5,29.9,14.7c0.5,0.3,0.9,0.6,1.4,0.8C198,47.3,198.9,47.7,199.6,48.4z"/>
	<path class="st1" d="M54.9,94.2c1.4,0.2,2.6-0.4,3.9-0.8c7-2,14.1-3.6,21.3-4.6c3.5-0.5,7.1-0.8,10.7-0.9
		c11.5-0.5,22.7,1.1,33.7,4.8c4,1.3,7.7,3,11.5,4.8c0.2,0.3,0,0.6-0.1,0.8c-0.7,1.6-0.4,3.1,0.7,4.4c2.4,2.9,5.6,4.5,9.3,4.1
		c4.3-0.5,7.2-3,8.8-7c0.7-1.7,0.3-3.2-1.1-4.5c-0.3-0.3-0.7-0.4-0.8-0.9c4.8-4.5,9.9-8.5,15.4-12.1c8-5.2,16.6-9.1,25.9-11.4
		c8.4-2.1,16.9-2.5,25.4-2.1c2.2,0.1,4.3,0.3,6.5,0.5c0.4,0,0.8,0.2,1.1-0.2c1,0.3,2,0.3,3.1,0.1c1.3-0.3,2.7-0.1,3.9,0.3
		c1.6,0.5,2.2,1.8,1.7,3.6c-0.8,2.8-2.5,4.9-4.3,7.1c-2.4,2.9-5.1,5.6-8,8c-0.4,0.4-0.7,0.8-1.1,1.2c-0.5,0.9-1.4,1.4-2.2,2.1
		c1-0.1,1.7-0.8,2.7-0.6c2-0.7,3.8-1.9,6-2.9c-1.2,2.5-3.2,3.8-5,5.2c-0.9,1.1-2.3,1.5-3.5,2c-1.1,0.5-2.3,0.8-3.5,1
		c-0.9,0.2-1.8,0.4-2.4,0.3c0.9-0.1,2.2,0.4,3.5,0.3c1.8,0.1,3.6-0.2,5.4-0.4c0.5,0,1.1-0.3,1.3,0.3c0.2,0.5-0.4,0.9-0.8,1.1
		c-1.6,1.1-3.4,1.7-5.3,2.1c-2.7,0.5-5.3,0.4-7.9-0.3c-0.7-0.2-1.2,0-1.7,0.5c-0.5,0.4-1.2,0.8-1.8,1.3c2.1,0.5,4,0.4,6,0.2
		c0.9-0.1,1.7-0.1,2.6-0.2c0.3-0.1,0.7-0.1,0.9,0.3c0.1,0.4-0.1,0.6-0.4,0.9c-0.2,0.2-0.5,0.4-0.7,0.5c-2.3,1-4.6,1.8-7.1,1.8
		c-2,0-4.1,0.1-6.1-0.1c1.3,0.9,2.7,1.5,4.2,2c0.8,0.2,1.5,0.4,2.3,0.7c0.3,0.1,0.6,0.3,0.6,0.6c0,0.4-0.3,0.5-0.6,0.7
		c-0.2,0.1-0.5,0.1-0.7,0.1c-2.8,0.2-5.5,0-8.1-1.2c-1.2-0.6-2.2-0.4-3.3,0.2c-9.2,5.5-18.8,10.1-28.8,13.8
		c-2.6,0.9-5.2,1.7-7.9,2.5c-6.6,1.9-13.4,3.2-20.3,3.5c-1.7,0.1-3.4,0.2-5.1,0.2c-4.5,0-8.9-0.2-13.3-0.8c-1.9,0.1-3.8-0.4-5.6-0.5
		c-8.2-1.1-16.3-2.8-24.2-5c-0.8-0.2-1.3,0.1-1.8,0.5c-2.2,1.9-4.8,3.2-7.7,3.8c-0.1,0-0.2,0.1-0.4,0.1c-0.5,0-1.2,0.3-1.4-0.4
		c-0.2-0.6,0.4-0.9,0.9-1.2c1.2-0.7,2.4-1.6,3.5-2.4c0.6-0.5,1.1-1,1.7-1.6c-0.7-0.1-1.2,0.3-1.6,0.5c-3.5,1.5-7.2,2.4-11.1,1.8
		c-0.8-0.1-2,0-2-1c0-0.8,1.2-0.7,1.9-0.9c1.8-0.4,3.6-0.8,5.3-1.4c0.6-0.2,1.2-0.5,1.9-0.9c-1-0.4-1.8-0.6-2.6-0.9
		c-0.7-0.2-1.3,0.2-1.9,0.5c-3.8,2-7.8,2.8-12.1,2.1c-0.7-0.1-1.8-0.1-1.8-1c0-0.8,1.1-0.7,1.7-0.9c2.4-0.5,4.8-0.9,7.1-2.2
		c-1.6,0.4-3.2,0.3-4.7,0.3c-1.6,0-3.1-0.4-4.7-0.8c-1.6-0.4-3-1.2-4.5-1.9c-0.4-0.2-0.8-0.5-1.2-0.9c-0.2-0.2-0.5-0.5-0.4-0.9
		c0.2-0.4,0.5-0.3,0.9-0.3c0.5,0,1.1,0.2,1.6,0.3c2.5,0.5,4.9,0.9,7.6,0.7c-5.2-2.4-10.2-4.9-14.7-8.3c-1.3-1-2.5-2.1-3.5-3.5
		c-1.5-2.2-0.9-4.2,1.6-5.2C51,94.8,52.9,94.5,54.9,94.2z"/>
	<path class="st1" d="M11.3,165.6c-0.3-1.8-0.8-3.5-1-5.4c-0.5-7-0.1-14.1-0.3-21.1c-0.1-4-0.5-8-1.5-12c-1.1-4.5-3.2-8.4-6.4-11.8
		c-0.2-0.2-0.4-0.3-0.6-0.5c-1.4-1.1-1.4-1.5,0.3-2.4c1.9-0.9,3.9-1.4,6-1.7c4.3-0.6,8.5-0.2,12.6,1c4.1,1.2,7.7,3.2,11,6
		c3.9,3.3,6.7,7.4,9.1,11.8c0.5,0.2,0.6,0.6,0.8,1c1.7,3.5,2.8,7.1,3.6,10.9c1.1,4.9,1.8,9.9,2.9,14.8c0.8,3.3,1.7,6.5,3.1,9.6
		c0.2,0.4,0.4,0.8,0.3,1.2c-0.3,0.7-0.9,0.5-1.4,0.4c-2.7-0.3-5.4-0.5-8.1-0.1c-3.8,0.5-6.6,2.7-7.7,6.4c-0.2,0.6-0.2,1.3-0.8,1.8
		c-0.7,0.3-1.1-0.2-1.6-0.5c-1.5-1-2.7-2.3-4-3.6c-0.3-0.3-0.6-0.7-1.1-1.1c0.1,1.4,0.5,2.6,0.9,3.8c0.2,0.7,0.6,1.4,0.8,2.1
		c0.1,0.3,0.2,0.6,0,0.8c-0.3,0.3-0.6,0.1-0.9,0c-2.3-0.9-4.5-1.9-6.6-3.1c-3.8-2.2-7.1-4.8-9.4-8.6
		C11.5,165.5,11.4,165.6,11.3,165.6z"/>
	<path class="st2" d="M33.1,175.6c0.3-0.3,0.4-0.8,0.5-1.2c1.1-4.4,4-6.8,8.6-7.3c2.8-0.3,5.5-0.1,8.3,0.3c0.3,0,0.5,0,0.7-0.2
		c2.6,0.1,5.1,0.9,7.6,1.4c8.4,1.9,16.7,4.3,25.1,6.3c4.3,1.1,8.7,2.1,13,2.9c1,0.2,1.9,0.3,2.9,0.1c0.7,0.6,1.6,0.7,2.4,0.9
		c6.2,1.1,12.4,1.9,18.6,2.6c1.9,0.3,3.7,0.2,5.6,0.3c6.2,0.4,12.3,0.3,18.5-0.1c7.2-0.5,14.3-1.4,21.3-2.6
		c6.9-1.2,13.8-2.7,20.5-4.6c5.5-1.3,11-2.9,16.4-4.3c3.1-0.8,6.2-1.6,9.3-2.3c2.7-0.6,5.3-1.1,8.1-1.3c0.4,0,0.8-0.1,1.2,0.2
		c1.8,0,3.6-0.1,5.4,0.3c4.4,0.9,6.8,3.7,7.5,8.4c0.8,6.1-0.5,11.8-2.9,17.3c-3.7,8.4-9.6,15.3-16.4,21.3
		c-7.1,6.3-15.1,11.3-23.6,15.4c-10,4.8-20.5,8.2-31.4,10.2c-6.5,1.2-13.1,2-19.7,2.3c-5.5,0.3-11,0.3-16.5-0.1
		c-16.3-1.2-32.1-4.7-47-11.5c-5.2-2.4-10.3-5.1-15.1-8.3c-0.7-0.4-1.4-0.8-2-1.2c-2.5-1.4-4.7-3.2-6.8-5.1
		c-5.3-4.5-10-9.5-13.8-15.5c-3.7-5.8-6.1-12-6.7-18.8C32.7,179.5,32.6,177.5,33.1,175.6z"/>
	<path class="st3" d="M58.7,168.8c-2.1-0.4-4.2-0.8-6.2-1.2c-0.5-0.1-0.9-0.2-1.3-0.5c-2.5-5.5-3.9-11.4-4.9-17.3
		c-0.8-4.6-1.6-9.3-3.1-13.7c-0.7-2.2-1.6-4.4-2.6-6.5c0-3.8,0.1-7.6,0.5-11.4c0.7-7.8,2.4-15.4,5-22.7c4.1-11.5,10.1-21.8,18.2-31
		c3.5-4,7.3-7.6,11.4-11c0.6,0.2,0.7,0.8,0.9,1.3c0.7,1.5,1.4,3.1,2.3,4.5c0.2,0.3,0.4,0.7,0.3,1.2c-0.3,0.7-1,1.2-1.6,1.8
		c-7.2,6.3-13,13.7-17.7,21.9c-1.9,3.2-3.5,6.6-4.9,10c0,0.1,0,0.1,0,0.2c-0.7,0.8-1.8,0.5-2.7,0.7c-1.1,0.3-2.3,0.5-3.3,1
		c-2,0.9-2.5,2.5-1.3,4.4c0.9,1.5,2.2,2.6,3.5,3.7c0.3,0.4,0.1,0.9,0,1.3c-1.3,5.4-2.1,10.8-2.5,16.4c-0.7,10.6,0.6,20.9,3.7,31.1
		c1.6,5.1,3.6,10,6.1,14.8C58.7,168,58.9,168.4,58.7,168.8z"/>
	<path class="st0" d="M33.1,175.6c0.5,0.6,0,1.2,0,1.8c-0.2,5.3,0.8,10.3,2.8,15.1c3.6,8.7,9.5,15.7,16.5,21.9
		c2.3,2,4.7,3.9,7.2,5.7c0.2,0.1,0.3,0.4,0.5,0.6c-0.3,0.1-0.7,0-1-0.1c-15.7-5.4-28.9-14.2-38.4-28c-4.9-7-7.4-15-8.9-23.4
		c-0.2-1.2-0.4-2.4-0.6-3.6c0-0.2,0.1-0.4,0.1-0.6c4.3,6,9.6,9.8,17,12.3c-0.5-1.3-1-2.5-1.3-3.7c-0.4-1.2-0.8-2.4-0.8-3.9
		C28.6,171.8,30.4,174.3,33.1,175.6z"/>
	<path class="st3" d="M221.9,166.6c-3.1,0.3-6.2,0.8-9.2,1.5c-0.1-0.6,0.3-1,0.5-1.5c4-8.1,6.9-16.5,8.3-25.5
		c0.9-5.9,1.4-11.8,1.1-17.8c-0.4-7.3-1.5-14.6-3.7-21.6c-0.2-0.7-0.6-1.4-0.2-2.2c2.2-0.6,4.4-1.1,6.4-3c-2.6,0.1-4.7,0.7-6.9,0.4
		c-0.6-0.2-1.4-0.2-1-1.2c2.5-0.6,4.8-1.6,7-2.8c2.6,6.9,4.5,14,5.4,21.3c0.9,7.1,1.1,14.2,0.4,21.4
		C229.1,146.5,226.2,156.8,221.9,166.6z"/>
	<path class="st4" d="M166,31.4c-1.3-0.3-2.7-0.3-3.7-1.3c2-4,4.6-7.6,7.6-11c7.2-8.1,15.8-14.3,25.7-18.6c1.8-0.8,1.8-0.8,2.6,1.1
		c2.6,6.6,4,13.4,4.6,20.4c0.7,7.9,0.2,15.7-2.1,23.4c-0.3,1-0.7,2-1.1,3.1c-0.9-0.3-1.7-0.7-2.2-1.5c-0.4-0.4-0.2-0.9-0.1-1.3
		c0.9-4.7,1.3-9.5,1-14.3c-0.3-6.9-1.4-13.7-3.8-20.2c-0.6-1.7-0.7-1.7-2.2-1c-5.7,2.6-10.8,6.1-15.5,10.2
		c-3.6,3.1-6.9,6.5-9.8,10.3C166.7,31,166.5,31.4,166,31.4z"/>
	<path class="st4" d="M79,60.4c-1.1-2.3-2.3-4.6-3.4-7c-2.4-6.2-4-12.5-4.8-19.1c-0.5-4.8-0.8-9.6-0.3-14.4c0.2-1.8,0.2-1.8,2-1.7
		c7.2,0.7,14.1,2.8,20.8,5.7c6.5,2.8,12.5,6.5,17.8,11.2c0.2,0.1,0.4,0.2,0.5,0.5c-1.1,0.6-2.2,1.2-3.2,1.8c-0.3,0.2-0.7,0.4-1,0.1
		c-0.8,0.2-1.2-0.4-1.8-0.7c-8.3-5.3-17.3-8.8-27.1-10.3c-1.4-0.2-1.4-0.2-1.7,1.2c-0.5,3-0.1,5.9,0.1,8.9
		c0.6,7.1,2.2,13.9,4.8,20.5c0.3,0.7,0.8,1.3,0.6,2.1c-0.5,1.1-1.6,1.8-2.2,2.8C79.4,61.8,79.1,61.1,79,60.4z"/>
	<path class="st5" d="M223.2,90.7c-1.1,0.5-2.2,0.8-3.4,0.9c0.8-0.9,1.7-1.8,2.8-2.4C222.8,89.7,223,90.2,223.2,90.7z"/>
	<path class="st6" d="M111.5,35.7c-0.2-0.2-0.3-0.3-0.5-0.5c0.7-0.1,1.3-0.2,2-0.3C112.5,35.2,112,35.4,111.5,35.7z"/>
	<path class="st1" d="M166,31.4c6.5-8.9,14.7-15.7,24.5-20.7c4.1-2.1,3.4-2.4,4.9,2c1.7,5.2,2.6,10.6,3.1,16
		c0.5,6.1,0.1,12.2-1.1,18.3c-1.3-0.3-2.3-1.3-3.4-2c-8.6-5.5-17.7-10-27.4-13.2C166.4,31.6,166.2,31.5,166,31.4z"/>
	<path class="st1" d="M82.2,59.4c-3.4-7.8-5.3-16-5.8-24.5c-0.1-2.5-0.2-5.1,0-7.6c0.1-1,0.5-1.3,1.4-1.1
		c10.3,1.5,19.8,5.2,28.6,10.9c0.3,0.2,0.6,0.3,0.9,0.5c0.1,0.6-0.4,0.7-0.7,0.9C98.2,43.6,91,50.1,84.3,57.2
		C83.6,58,83.1,58.9,82.2,59.4z"/>
	<path class="st7" d="M153,94.4c2.7,1.7,3.2,3.5,1.8,6.4c-3.3,7.3-12.9,8.6-18.1,2.5c-1.7-2-1.9-3.4-0.7-5.8
		C139.5,93.3,148,91.8,153,94.4z"/>
	<path class="st8" d="M79,60.4c0.4,0.5,0.8,1.1,1,1.8c-5.6,6.5-10.6,13.6-15.6,20.6c-2.3,3.3-4.6,6.6-7.3,9.5
		c-0.6,0.7-1.2,1.4-2.1,1.7c-0.3-1,0.4-1.7,0.7-2.5c3.1-7.2,7.3-13.8,12.2-19.9C71.2,67.6,74.9,63.8,79,60.4z"/>
	<path class="st7" d="M157.7,64.4c1.8,0,3,0.8,4,2c2.3,2.9,2.3,7,0.2,9.6c-1.4,1.7-3.5,2.2-5.5,1.1c-3.8-2.1-4.7-8.5-1.5-11.5
		C155.8,64.8,156.8,64.4,157.7,64.4z"/>
	<path class="st7" d="M129.8,76.5c0,1.5-0.4,3-1.4,4.3c-1.4,1.8-3.8,2.2-5.7,1.1c-3.4-2.1-4.4-7.9-1.8-11c2-2.3,5-2.2,7,0.2
		C129.2,72.6,129.8,74.4,129.8,76.5z"/>
	<path class="st9" d="M111.2,71.6c0.4-3.4,2-6.1,4.5-8.2c2.9-2.5,6.4-3.7,10.3-3.5c1.2,0.1,2.3,0.5,3.3,1c0.4,0.2,0.7,0.6,0.6,1
		c-0.1,0.6-0.6,0.4-1,0.5c-2.8,0.2-5.6,0.2-8.2,1.3c-3,1.2-4.8,3.6-6.3,6.3c-0.5,0.9-1,1.7-1.4,2.6c-0.2,0.4-0.4,1-1.1,0.8
		c-0.6-0.2-0.6-0.7-0.6-1.2C111.2,72,111.2,71.8,111.2,71.6z"/>
	<path class="st9" d="M157,55.7c4.2-0.3,7.5,1.4,10.4,4c1,0.9,2,2.1,2.2,3.7c0,0.4,0.3,1-0.3,1.2c-0.5,0.2-0.8-0.2-1.1-0.4
		c-1.1-0.7-2-1.8-3-2.6c-3.7-3.3-7.9-3.9-12.6-2.5c-1,0.3-2.1,0.6-3.1,0.9c-0.9,0.3-1.1-0.2-0.9-0.9c0.1-0.6,0.6-1.1,1.1-1.5
		C152,56.2,154.4,55.4,157,55.7z"/>
	<path class="st10" d="M166.6,179.4c-2.9,0.4-5.8,0.9-8.7,1.3c-2.6,0.4-5.2,0.8-7.7,1c-5.5,0.4-11.1,0.9-16.7,0.7
		c-4.1-0.1-8.1-0.5-12.2-0.5c-0.2,0-0.4-0.1-0.6-0.2c0.3-0.4,0.6-0.3,0.8-0.2c-1.7-3.3-3-7-4.1-10.6c-1-3.3-1.7-6.6-2.3-9.9
		c-1-5.7-1.5-11.4-1.5-17.1c0-6.2,2.2-11.5,6.9-15.8c0.3-0.3,0.7-0.6,0.7-1.1c4.7,0.5,9.3,0.8,14,0.7c8.5-0.1,16.8-1.3,24.9-3.7
		c3.5,1.2,6.2,3.4,8.5,6.1c3.5,4,5,8.7,5,13.9c0,4.9-0.4,9.7-1.1,14.6c-0.6,3.9-1.3,7.7-2.4,11.5
		C169.1,173.1,168.3,176.4,166.6,179.4z"/>
	<path class="st8" d="M58.7,168.8c-1.6-2.9-2.9-5.9-4.2-9c-2.6-6.4-4.4-13.1-5.4-20c-0.8-5.4-1.2-10.8-0.9-16.2
		c0.2-5.6,1-11.2,2.3-16.7c0.2-0.9,0.4-1.8,0.7-2.8c4.8,3.5,10,6.2,15.4,8.7c-3.7,0.7-7.2-0.3-10.8-0.8c4.7,3.9,10.3,4.5,16.2,3.7
		c-0.8,0.9-2.2,1.5-4.7,2.2c-1.6,0.4-3.3,0.7-5.1,1.1c1,0.8,2.1,0.9,3.1,1c3.8,0.4,7.5-0.4,10.8-2.4c0.9-0.5,1.6-0.7,2.6-0.3
		c0.8,0.4,1.7,0.6,2.7,1c-1.6,1.1-3.2,1.6-4.9,2c-1.7,0.4-3.4,0.8-5,1.3c1.8,0.8,3.6,1,5.5,0.8c3-0.3,5.8-1,8.5-2.4
		c0.5-0.3,0.9-0.2,1.4,0.2c-1.8,2.3-4.3,3.6-6.8,5.3c1.1,0.6,1.9,0.1,2.8-0.1c2.6-0.6,4.9-1.9,6.8-3.7c0.5-0.5,0.9-0.6,1.6-0.4
		c7.6,2.1,15.3,3.8,23.2,4.8c0.3,0,0.6,0.2,1,0.2c0.2,0.6-0.2,0.9-0.4,1.4c-4.3,6.9-7.4,14.4-9.8,22.2c-0.2,0.6-0.3,1.2-0.7,1.7
		c-0.7,0.2-1.2-0.3-1.6-0.7c-2.7-2.5-4.7-5.5-5.4-9.2c-0.7-3.7-3.2-6.2-6-8.5c-1.3-1-2.6-0.6-3.2,1c-0.8,2.1-0.7,4.3-0.3,6.5
		c1.1,6.6,3.9,12.3,8.2,17.4c1.4,1.7,2.9,3.2,4.6,4.5c0.4,0.3,0.8,0.6,0.9,1.2c-0.1,2.1-0.6,4.1-0.9,6.2c-0.3,2.2-0.5,4.4-0.8,6.7
		c-0.1,0.4,0,0.9-0.4,1.2c-0.2,0.6-0.5,0.6-1.1,0.5c-7.1-1.4-14.2-3.1-21.2-4.9C71.1,172,64.9,170.4,58.7,168.8z"/>
	<path class="st8" d="M218.7,99.5c0.5,2.8,1.6,5.5,2.2,8.3c0.9,4.5,1.6,9,1.9,13.6c0.2,2.6,0.2,5.2,0.2,7.9
		c-0.1,3.5-0.5,6.9-0.9,10.4c-0.7,5.3-2,10.3-3.6,15.4c-1.4,4.1-3.1,8.1-5,11.9c-0.2,0.4-0.4,0.7-0.7,1.1c-8.3,2-16.5,4.3-24.7,6.5
		c-0.3,0.1-0.7,0-1,0.1c-0.3-0.2-0.4-0.5-0.4-0.7c-0.5-3.4-1-6.8-1.5-10.1c0-0.2,0-0.4,0-0.6c0.1-0.7,0.7-1,1.2-1.4
		c6.1-4.9,10.3-11,12.5-18.5c0.6-2.2,0.9-4.4,0.8-6.7c0-0.2,0-0.3,0-0.5c-0.4-2.6-1.9-3.3-4-1.6c-2.7,2.2-5.2,4.6-6.1,8.2
		c-0.9,3.5-3.3,6-5.9,8.3c-0.3,0.3-0.7,0.6-1.2,0.5c-0.4-0.4-0.5-1-0.6-1.5c-2.5-8.2-5.8-16-10.4-23.3c-0.9-1.3-1.8-2.6-2.8-3.9
		c-0.3-0.4-0.7-0.8-0.6-1.3c3.3-1.3,6.6-2.7,9.8-4.1c6.6-2.9,13-6.2,19.2-10c1-0.6,1.9-0.8,3-0.2c2.6,1.3,5.4,1.5,8.3,1.3
		c0.4,0,0.8-0.1,1.4-0.5c-2.7-1.1-5.6-1.6-8-3.3c0.7-0.7,1.6-0.4,2.3-0.3c4,0.5,8,0.2,11.7-1.7c0.4-0.2,0.9-0.4,1.1-1.1
		c-3.4,0.3-6.8,0.8-10.3-0.1c1.2-0.8,2.2-1.5,3.2-2.3c0.3-0.2,0.5-0.3,0.8-0.2C213.1,99.8,215.9,99.9,218.7,99.5z"/>
	<path class="st0" d="M167.8,121.5c5.3,6.6,9,14,12,21.9c1,2.6,1.9,5.2,2.6,7.9c0.1,0.5-0.3,0.7-0.6,0.9c-2.8,2.2-5.9,4-8.8,6
		c-0.2,0.1-0.4,0.2-0.7,0.1c0.3-3.4,0.6-6.9,0.9-10.3c0.6-7.6-0.7-14.5-6.7-19.9c-1.9-1.7-4.2-3-6.4-4.3
		C162.7,123,165.3,122.3,167.8,121.5z"/>
	<path class="st0" d="M104.4,151.6c2.5-9,6.1-17.4,11.1-25.3c1.9,0.2,3.8,0.3,5.7,0.5c0.6,0.2,0.8,0.4,0.2,0.9
		c-4.2,3.5-6.6,8-7.2,13.5c-0.5,4.5,0,9,0.5,13.5c0.2,2,0.5,4,0.8,6c-0.4,0.2-0.6-0.1-0.9-0.3c-2.7-2.7-6-4.8-8.9-7.3
		C105.1,152.8,104.5,152.4,104.4,151.6z"/>
	<path class="st11" d="M146.1,118.5c-4.3-0.2-7.8-2.1-10.8-5.1c-0.3-0.3-0.4-0.6-0.6-0.9c-0.5-0.9-0.2-1.3,0.8-1.2
		c1.5,0.2,3,0.3,4.6,0.5c4.9,0.8,9.6-0.1,14-2.2c1.1-0.5,2.2-1,3.3-1.5c0.4-0.2,0.9-0.6,1.4-0.1c0.4,0.5,0.2,1-0.1,1.5
		c-0.5,1.3-1.3,2.4-2.2,3.5c-2.5,2.9-5.6,5-9.5,5.5C146.8,118.6,146.5,118.5,146.1,118.5z"/>
	<path class="st12" d="M217.2,95.8c0,0.7,0.5,0.9,1,1.2c-1.4,0.1-2.7-0.3-4.3-0.5C215.1,95.9,216.2,96,217.2,95.8z"/>
	<path class="st1" d="M133.8,238.2c-4.8,0.1-9.8-0.3-14.8-0.8c-8.6-0.9-17-2.5-25.3-5.1c-5.7-1.7-11.1-3.9-16.5-6.4
		c-7.7-3.6-14.9-8.1-21.4-13.6c-6.6-5.6-12.3-12.1-15.9-20.1c-2.1-4.7-3.3-9.6-3.1-14.7c0.1-1.2,0.3-2.3,0.7-3.4
		c0.7-1.9,2.2-2.9,4.1-3.3c2.7-0.5,5.4-0.3,8.1,0.1c6.1,0.9,12,2.4,18,3.9c5.6,1.4,11.2,2.9,16.9,4.3c7.5,1.9,15.1,3.4,22.8,4.6
		c4.5,0.7,9.1,1.2,13.7,1.6c3.3,0.2,6.5,0.4,9.8,0.5c1.8,0.1,3.7,0.3,5.5,0.2c5.8-0.3,11.6-0.5,17.4-1.2c12-1.3,23.8-3.9,35.5-6.9
		c7.7-2,15.4-4.2,23.1-6.1c3.8-0.9,7.7-1.7,11.7-1.7c6,0,6.9,2.8,7.1,7.1c0.3,6.3-1.6,12-4.7,17.5c-3.2,5.8-7.5,10.7-12.3,15.1
		c-5.1,4.6-10.7,8.6-16.6,12c-10.5,6-21.7,10.2-33.4,12.9c-5.4,1.3-10.8,2.1-16.3,2.6C143.2,237.9,138.6,238.3,133.8,238.2z"/>
	<path class="st0" d="M99.7,177.9c0.4-4.8,1.1-9.5,1.9-14.3c0.9-0.1,1.4,0.6,2.1,1c3.5,2.4,7.1,4.6,11.3,5.7
		c0.9,0.2,1.9-0.1,2.8,0.5c1.2,3.6,2.5,7.2,4.2,10.6c-0.4,0.3-0.8,0.1-1.2,0.2c-6.7-0.6-13.4-1.6-20-2.8
		C100.1,178.8,99.7,178.6,99.7,177.9z"/>
	<path class="st0" d="M185.2,162.9c0.7,3.9,1.3,7.8,1.7,11.7c-2.4,1-4.9,1.4-7.4,2c-4.3,1-8.6,1.8-12.9,2.8c0.3-1.7,1.2-3.2,1.7-4.8
		c0.5-1.6,1-3.2,1.5-4.7c0.3-0.2,0.6-0.3,0.9-0.4c4.8-1.1,9-3.4,13.1-6C184.3,163.2,184.7,162.8,185.2,162.9z"/>
	<path class="st13" d="M157.4,69.2c1.1,0.1,2,1.3,1.9,2.7c-0.1,1.2-0.9,2.1-1.8,2c-1.1-0.1-2-1.4-1.9-2.7
		C155.7,70,156.4,69.1,157.4,69.2z"/>
	<path class="st14" d="M123.7,76c0-1.3,0.8-2.2,1.8-2.2c1,0.1,1.9,1.3,1.9,2.6c0,1.2-0.8,2.2-1.8,2.1
		C124.6,78.5,123.7,77.3,123.7,76z"/>
	<path class="st7" d="M117.7,170.9c-3.7,0.2-6.8-1.5-9.9-3.1c-2.2-1.2-4.2-2.7-6.2-4.1c-5-4-8.9-9-11.5-14.9
		c-1.4-3.2-2.3-6.5-2.5-10c-0.1-1.6,0-3.1,0.5-4.6c0.7-2.1,2.3-2.6,4-1.2c2.9,2.4,5.2,5.3,6,9.1c0.8,4.1,3.3,7,6.4,9.5
		c1.5,1.6,3.2,2.8,5,4.1c2.1,1.6,4.2,3.3,6.1,5.1C116,164.2,116.9,167.5,117.7,170.9z"/>
	<path class="st7" d="M185.2,162.9c-4.1,2.7-8.4,5.3-13.3,6.5c-0.7,0.2-1.4,0.3-2.1,0.4c1-3.8,1.7-7.6,2.5-11.5
		c3.2-2.2,6.4-4.4,9.5-6.6c0.2-0.1,0.4-0.3,0.5-0.5c3.2-2.3,5.8-5,6.8-9c1-3.7,3.6-6.3,6.6-8.6c1.9-1.4,3.3-0.8,3.9,1.5
		c0.7,2.8,0.1,5.6-0.7,8.4C196.6,151.6,191.9,158,185.2,162.9z"/>
	<path class="st0" d="M116.2,204.8c0,2,0,4.1,0,6.1c0,0.8,0.3,1,1,1c3.2-0.3,6.3-0.3,9.5-0.8c1.7-0.3,2.8,0.8,2.3,2.4
		c-0.3,1-1.3,1.3-2.2,1.4c-3.1,0.4-6.2,0.7-9.3,0.7c-1,0-1.3,0.2-1.2,1.3c0.3,4.2,0.2,8.5,1.4,12.6c0.3,1-0.3,2-1.2,2.3
		c-1,0.3-2-0.1-2.4-1.2c-0.6-1.7-0.8-3.5-1-5.3c-0.3-3-0.1-6.1-0.7-8.9c-0.4-2,0-3.7,0.1-5.5c0.1-4.3,0.1-8.6,0.1-12.9
		c0-2.1,1-3.3,2.8-4c2.2-0.9,4.5-1,6.7-1.1c2.6-0.1,5.2,0.2,7.7,0.5c1.3,0.2,2,0.9,1.9,2c-0.1,1.1-0.7,1.7-2.1,1.7
		c-1.5,0-2.9-0.2-4.4-0.4c-2.5-0.2-5.1,0-7.6,0.5c-0.9,0.2-1.4,0.7-1.4,1.7C116.3,200.9,116.3,202.9,116.2,204.8
		C116.3,204.8,116.2,204.8,116.2,204.8z"/>
	<path class="st0" d="M142.5,204.9c0,2,0,4,0,6c0,0.8,0.2,1.1,1.1,1c3.1-0.3,6.3-0.3,9.5-0.8c1.7-0.3,2.7,0.8,2.3,2.3
		c-0.3,1.1-1.2,1.3-2.1,1.5c-3.1,0.4-6.2,0.7-9.3,0.7c-1,0-1.4,0.2-1.3,1.3c0.4,4.2,0.2,8.5,1.4,12.6c0.3,1-0.3,1.9-1.3,2.3
		c-1,0.3-2-0.2-2.4-1.3c-0.6-1.7-0.8-3.4-1-5.1c-0.3-3,0-6.1-0.7-8.9c-0.5-2.1,0.1-3.9,0.1-5.8c0.1-4.3,0.1-8.6,0.1-12.9
		c0-1.7,0.7-2.8,2.2-3.6c2.2-1.1,4.6-1.2,6.9-1.3c2.7-0.2,5.4,0.2,8.1,0.5c1.2,0.1,1.9,0.9,1.9,2c0,1.1-0.7,1.8-2,1.8
		c-1.4,0-2.8-0.2-4.2-0.3c-2.5-0.3-5.1,0-7.6,0.4c-1.1,0.2-1.6,0.7-1.6,2C142.6,201.1,142.6,203,142.5,204.9
		C142.6,204.9,142.5,204.9,142.5,204.9z"/>
	<path class="st0" d="M134.3,211.4c1.3,0,2,0.9,1.9,2.2c-0.4,4.9-0.2,9.8-0.2,14.7c0,0.5,0.1,1,0.2,1.5c0,1.1-0.7,2-1.7,2.1
		c-1,0.1-1.8-0.5-2-1.6c-0.1-0.5-0.2-1-0.2-1.5c-0.1-4.8-0.1-9.6,0-14.4c0-0.5,0.1-1.1,0.2-1.6C132.7,211.8,133.3,211.4,134.3,211.4
		z"/>
	<path class="st0" d="M158.7,221.7c0.1-2.9-0.1-5.7,0.3-8.5c0.2-1.4,0.9-1.9,2.2-1.8c1,0.1,1.7,1,1.6,2.2c-0.4,4.4-0.2,8.8-0.2,13.2
		c0,1,0,1.9,0.1,2.9c0.2,1.1-0.6,2.1-1.6,2.3c-1,0.1-1.9-0.5-2.1-1.7C158.6,227.4,158.9,224.5,158.7,221.7z"/>
	<path class="st15" d="M136.2,207.6c0,1.1-0.9,1.8-2,1.8c-1.1,0-1.8-0.8-1.8-1.9c0-1,0.9-1.8,1.8-1.8
		C135.3,205.7,136.2,206.7,136.2,207.6z"/>
	<path class="st15" d="M162.8,207.6c0,1.1-0.9,1.9-1.9,1.8c-1.1,0-1.8-0.8-1.8-1.9c0-1,0.8-1.8,1.8-1.8
		C161.8,205.7,162.8,206.7,162.8,207.6z"/>
</g>
</svg>
